<?xml version="1.0" encoding="UTF-8" standalone="no"?>
<svg
   xmlns:dc="http://purl.org/dc/elements/1.1/"
   xmlns:cc="http://creativecommons.org/ns#"
   xmlns:rdf="http://www.w3.org/1999/02/22-rdf-syntax-ns#"
   xmlns:svg="http://www.w3.org/2000/svg"
   xmlns="http://www.w3.org/2000/svg"
   xmlns:sodipodi="http://sodipodi.sourceforge.net/DTD/sodipodi-0.dtd"
   xmlns:inkscape="http://www.inkscape.org/namespaces/inkscape"
   enable-background="new 0 0 512 512"
   height="512px"
   id="Layer_1"
   version="1.1"
   viewBox="0 0 512 512"
   width="512px"
   xml:space="preserve"
   inkscape:version="0.92.4 (5da689c313, 2019-01-14)"
   sodipodi:docname="tg-counter_nobg.svg"><metadata
   id="metadata3414"><rdf:RDF><cc:Work
       rdf:about=""><dc:format>image/svg+xml</dc:format><dc:type
         rdf:resource="http://purl.org/dc/dcmitype/StillImage" /><dc:title></dc:title></cc:Work></rdf:RDF></metadata><defs
   id="defs3412" /><sodipodi:namedview
   pagecolor="#ffffff"
   bordercolor="#666666"
   borderopacity="1"
   objecttolerance="10"
   gridtolerance="10"
   guidetolerance="10"
   inkscape:pageopacity="0"
   inkscape:pageshadow="2"
   inkscape:window-width="1920"
   inkscape:window-height="1029"
   id="namedview3410"
   showgrid="false"
   inkscape:zoom="0.8417796"
   inkscape:cx="68.159372"
   inkscape:cy="125.17979"
   inkscape:window-x="0"
   inkscape:window-y="25"
   inkscape:window-maximized="1"
   inkscape:current-layer="Layer_1" /><g
   id="g3404" /><path
   style="fill:#d3dae3;fill-opacity:1;stroke-width:1.39136875"
   d="m 396.95535,480.75549 c -1.60991,-0.61025 -2.98851,-1.11453 -3.06355,-1.12066 -0.0751,-0.007 -24.27865,-19.34401 -53.78586,-42.97313 -29.5072,-23.6291 -54.96663,-43.56696 -56.57654,-44.30631 -4.27134,-1.96169 -10.78776,-1.79512 -15.44677,0.39478 -3.31767,1.55942 -6.86818,5.40231 -31.5593,34.15809 -15.30158,17.82054 -28.77188,33.30219 -29.93402,34.40369 -8.58871,8.14079 -24.07892,3.95931 -28.33953,-7.65009 -0.64939,-1.76943 -11.58314,-35.62799 -24.29726,-75.2413 -12.71413,-39.6133 -23.92081,-73.42566 -24.90372,-75.13863 -2.16173,-3.76729 -5.57598,-6.51211 -9.88651,-7.94827 -1.76585,-0.58831 -23.956598,-6.58821 -49.312771,-13.3331 C 44.493319,275.25562 22.445525,269.0101 20.854397,268.1216 9.8170944,261.95817 9.0709493,244.64336 19.545851,237.75552 21.051718,236.76529 126.69068,192.05208 254.29914,138.39283 475.85327,45.229396 486.5148,40.830489 490.75778,40.830489 c 7.12452,0 12.42655,3.039355 15.92167,9.127037 3.72818,6.493676 6.47158,-7.557234 -41.63112,213.224404 -24.38732,111.93292 -44.85987,204.9403 -45.49456,206.68306 -3.28799,9.02819 -13.95269,14.16766 -22.59842,10.8905 z M 188.04701,412.01364 c 0.61274,-0.74529 2.1081,-14.67739 4.42027,-41.18308 1.92191,-22.03119 3.86713,-41.55264 4.32271,-43.38093 0.45564,-1.82829 1.60068,-4.51099 2.54454,-5.96151 0.94391,-1.45054 46.28865,-41.86972 100.76614,-89.82042 54.4775,-47.95073 99.48886,-87.71866 100.02521,-88.37315 1.16061,-1.41628 0.54683,-3.89333 -1.12521,-4.54097 -0.71453,-0.27675 -3.12158,0.67882 -6.00933,2.38573 -11.06883,6.5426 -235.48257,142.93184 -237.15763,144.13438 -2.70688,1.94335 -5.12246,5.89753 -5.12246,8.38519 0,2.05866 30.64559,114.24976 32.18288,117.81892 0.83837,1.94658 3.7446,2.24877 5.15288,0.53584 z"
   id="path3418"
   inkscape:connector-curvature="0" /><rect
   style="fill:#ff0000"
   id="rect3426"
   width="382.01923"
   height="183.88652"
   x="125.42804"
   y="323.9642"
   rx="93.173859" /><text
   xml:space="preserve"
   style="font-style:normal;font-variant:normal;font-weight:normal;font-stretch:normal;line-height:0%;font-family:Clockopia;-inkscape-font-specification:'Clockopia, Normal';text-align:center;letter-spacing:0px;word-spacing:0px;writing-mode:lr-tb;text-anchor:middle;fill:#ffffff;fill-opacity:1;stroke:none;stroke-width:1px;stroke-linecap:butt;stroke-linejoin:miter;stroke-opacity:1"
   x="337.51233"
   y="452.68594"
   id="text3428"
   transform="scale(0.95051352,1.0520629)"><tspan
     sodipodi:role="line"
     id="tspan3430"
     x="337.51233"
     y="452.68594"
     style="font-size:154.55000305px;line-height:1.25">0000</tspan></text>

</svg>