<?xml version="1.0" encoding="UTF-8" standalone="no"?>
<svg
   xmlns:dc="http://purl.org/dc/elements/1.1/"
   xmlns:cc="http://creativecommons.org/ns#"
   xmlns:rdf="http://www.w3.org/1999/02/22-rdf-syntax-ns#"
   xmlns:svg="http://www.w3.org/2000/svg"
   xmlns="http://www.w3.org/2000/svg"
   xmlns:sodipodi="http://sodipodi.sourceforge.net/DTD/sodipodi-0.dtd"
   xmlns:inkscape="http://www.inkscape.org/namespaces/inkscape"
   enable-background="new 0 0 512 512"
   height="512px"
   id="Layer_1"
   version="1.1"
   viewBox="0 0 512 512"
   width="512px"
   xml:space="preserve"
   inkscape:version="0.92.4 (5da689c313, 2019-01-14)"
   sodipodi:docname="tg-muted-counter_nobg.svg"><metadata
   id="metadata3414"><rdf:RDF><cc:Work
       rdf:about=""><dc:format>image/svg+xml</dc:format><dc:type
         rdf:resource="http://purl.org/dc/dcmitype/StillImage" /><dc:title /></cc:Work></rdf:RDF></metadata><defs
   id="defs3412" /><sodipodi:namedview
   pagecolor="#ffffff"
   bordercolor="#666666"
   borderopacity="1"
   objecttolerance="10"
   gridtolerance="10"
   guidetolerance="10"
   inkscape:pageopacity="0"
   inkscape:pageshadow="2"
   inkscape:window-width="1920"
   inkscape:window-height="1029"
   id="namedview3410"
   showgrid="false"
   inkscape:zoom="1.1904561"
   inkscape:cx="2.4484836"
   inkscape:cy="240.53186"
   inkscape:window-x="0"
   inkscape:window-y="25"
   inkscape:window-maximized="1"
   inkscape:current-layer="Layer_1" /><g
   id="g3404" /><path
   style="fill:#d3dae3;fill-opacity:1;stroke-width:1.28798902"
   d="m 383.48166,453.10883 c -1.49029,-0.56491 -2.76646,-1.03172 -2.83593,-1.0374 -0.0695,-0.006 -22.47473,-17.90673 -49.78953,-39.78019 -27.31479,-21.87344 -50.88257,-40.32991 -52.37286,-41.01432 -3.95398,-1.81594 -9.98622,-1.66174 -14.29906,0.36545 -3.07117,1.44355 -6.35787,5.00091 -29.21443,31.62012 -14.16466,16.49646 -26.6341,30.82781 -27.7099,31.84747 -7.95056,7.53592 -22.28984,3.66513 -26.23388,-7.08169 -0.60114,-1.63796 -10.7225,-32.9808 -22.49196,-69.65081 -11.76946,-36.67001 -22.14347,-67.97008 -23.05335,-69.55578 -2.00111,-3.48738 -5.16168,-6.02825 -9.15194,-7.35771 -1.63464,-0.54459 -22.1766,-6.0987 -45.648788,-12.34244 C 57.207816,262.87775 36.798189,257.09627 35.325283,256.27379 25.10806,250.56831 24.417354,234.54 34.113963,228.16393 35.507943,227.24728 133.29785,185.85629 251.42491,136.18396 456.51741,49.942639 466.38678,45.870574 470.3145,45.870574 c 6.59516,0 11.50325,2.813529 14.73868,8.448892 3.45117,6.011191 5.99074,-6.995726 -38.5379,197.381674 -22.57532,103.61622 -41.52675,189.71309 -42.11428,191.32636 -3.04369,8.35739 -12.91599,13.11499 -20.91934,10.08133 z m -193.3863,-63.63428 c 0.56721,-0.68992 1.95147,-13.58685 4.09184,-38.12315 1.77911,-20.39426 3.5798,-38.46525 4.00153,-40.1577 0.42179,-1.69244 1.48175,-4.17582 2.35548,-5.51856 0.87378,-1.34277 42.84937,-38.75877 93.27914,-83.1467 50.42978,-44.38796 92.09677,-81.2011 92.59327,-81.80696 1.07437,-1.31105 0.5062,-3.60405 -1.04161,-4.20357 -0.66144,-0.25619 -2.88964,0.62838 -5.56283,2.20846 -10.24641,6.05648 -217.98605,132.31191 -219.53665,133.4251 -2.50576,1.79895 -4.74186,5.45934 -4.74186,7.76216 0,1.9057 28.3686,105.76092 29.79167,109.06489 0.77608,1.80195 3.46638,2.08168 4.77002,0.49603 z"
   id="path3418"
   inkscape:connector-curvature="0" /><rect
   style="fill:#666666;fill-opacity:0.8078078;stroke-width:1.0581876"
   id="rect3426"
   width="405.53961"
   height="193.96669"
   x="104.42768"
   y="314.72403"
   rx="98.910446" /><text
   xml:space="preserve"
   style="font-style:normal;font-variant:normal;font-weight:normal;font-stretch:normal;font-size:13.56345654px;line-height:0%;font-family:Clockopia;-inkscape-font-specification:'Clockopia, Normal';text-align:center;letter-spacing:0px;word-spacing:0px;writing-mode:lr-tb;text-anchor:middle;fill:#ffffff;fill-opacity:1;stroke:none;stroke-width:1.13028812px;stroke-linecap:butt;stroke-linejoin:miter;stroke-opacity:1"
   x="337.71164"
   y="439.11646"
   id="text3428"
   transform="scale(0.91263291,1.0957308)"><tspan
     sodipodi:role="line"
     id="tspan3430"
     x="337.71164"
     y="439.11646"
     style="font-size:174.68603516px;line-height:1.25;stroke-width:1.13028812px">0000</tspan></text>


</svg>