<?xml version="1.0" encoding="UTF-8" standalone="no"?>
<svg
   xmlns:dc="http://purl.org/dc/elements/1.1/"
   xmlns:cc="http://creativecommons.org/ns#"
   xmlns:rdf="http://www.w3.org/1999/02/22-rdf-syntax-ns#"
   xmlns:svg="http://www.w3.org/2000/svg"
   xmlns="http://www.w3.org/2000/svg"
   xmlns:xlink="http://www.w3.org/1999/xlink"
   xmlns:sodipodi="http://sodipodi.sourceforge.net/DTD/sodipodi-0.dtd"
   xmlns:inkscape="http://www.inkscape.org/namespaces/inkscape"
   enable-background="new 0 0 512 512"
   height="512px"
   id="Layer_1"
   version="1.1"
   viewBox="0 0 512 512"
   width="512px"
   xml:space="preserve"
   inkscape:version="0.91 r13725"
   sodipodi:docname="tg-muted-counter.svg"><metadata
     id="metadata3414"><rdf:RDF><cc:Work
         rdf:about=""><dc:format>image/svg+xml</dc:format><dc:type
           rdf:resource="http://purl.org/dc/dcmitype/StillImage" /><dc:title></dc:title></cc:Work></rdf:RDF></metadata><defs
     id="defs3412"><linearGradient
       inkscape:collect="always"
       id="linearGradient3482"><stop
         style="stop-color:#231f20;stop-opacity:1;"
         offset="0"
         id="stop3484" /><stop
         id="stop3492"
         offset="0.29923487"
         style="stop-color:#231f20;stop-opacity:0.82352941;" /><stop
         id="stop3490"
         offset="0.62930518"
         style="stop-color:#231f20;stop-opacity:0.58039216;" /><stop
         style="stop-color:#231f20;stop-opacity:0.51372549;"
         offset="1"
         id="stop3494" /><stop
         style="stop-color:#231f20;stop-opacity:0;"
         offset="1"
         id="stop3486" /></linearGradient><linearGradient
       inkscape:collect="always"
       xlink:href="#linearGradient3482"
       id="linearGradient3488"
       x1="187.74316"
       y1="340.2171"
       x2="189.42317"
       y2="164.65414"
       gradientUnits="userSpaceOnUse"
       spreadMethod="reflect"
       gradientTransform="matrix(2.4783495,0,0,2.5018154,-378.53139,-384.53982)" /></defs><sodipodi:namedview
     pagecolor="#ffffff"
     bordercolor="#666666"
     borderopacity="1"
     objecttolerance="10"
     gridtolerance="10"
     guidetolerance="10"
     inkscape:pageopacity="0"
     inkscape:pageshadow="2"
     inkscape:window-width="1920"
     inkscape:window-height="1029"
     id="namedview3410"
     showgrid="false"
     inkscape:zoom="0.8417796"
     inkscape:cx="356.23953"
     inkscape:cy="125.17979"
     inkscape:window-x="0"
     inkscape:window-y="25"
     inkscape:window-maximized="1"
     inkscape:current-layer="Layer_1" /><g
     id="g3404" /><path
     inkscape:connector-curvature="0"
     style="fill:#231f20"
     d="m 353.82089,168.36138 -172.9888,105.07625 c -2.97402,1.75127 -4.21319,5.25381 -3.22185,8.50617 l 22.55298,81.55918 c 0.7435,2.25164 3.96536,2.00146 4.21319,-0.50036 l 4.9567,-56.29084 c 0.24784,-4.25309 2.23052,-8.256 5.45237,-11.00799 L 356.0514,171.36356 c 1.48701,-1.50109 -0.49567,-4.25308 -2.23051,-3.00218 z"
     id="path3406" /><path
     inkscape:connector-curvature="0"
     d="m 420.24065,2.7412039 -328.381305,0 C 44.0272,2.7412039 5.1171126,42.019706 5.1171126,90.304743 l 0,331.490537 c 0,48.28504 38.9100874,87.56354 86.7422324,87.56354 l 328.381305,0 c 47.83215,0 86.74224,-39.2785 86.74224,-87.56354 l 0,-331.490537 c 0,-48.285037 -39.15793,-87.5635391 -86.74224,-87.5635391 z M 434.61508,113.32144 371.16933,404.28258 c -2.23051,9.75708 -13.63092,13.75998 -21.3138,7.50544 l -74.35049,-59.5432 c -5.45237,-4.50327 -13.63092,-3.75273 -18.33978,1.75127 l -38.16659,44.53231 c -6.69154,8.00581 -19.57896,5.25381 -22.55298,-4.50327 L 162.74014,289.19907 c -1.48701,-4.25309 -4.9567,-7.75563 -9.16989,-8.75636 L 86.902646,262.67982 C 74.758734,259.42746 73.519559,242.41512 85.167801,237.41149 L 416.52313,98.060371 c 9.9134,-4.002905 20.32247,4.753449 18.09195,15.261069 z"
     id="path3408"
     style="fill:url(#linearGradient3488);fill-opacity:1" /><path
     style="fill:#ffffff"
     d="m 354.04384,413.77541 c -1.15707,-0.43859 -2.14789,-0.80103 -2.20182,-0.80543 -0.054,-0.005 -17.44946,-13.90286 -38.6568,-30.88551 -21.20731,-16.98263 -39.50543,-31.3123 -40.6625,-31.84368 -3.06988,-1.4099 -7.75334,-1.29019 -11.10184,0.28373 -2.38447,1.12079 -4.93628,3.88274 -22.6822,24.54999 -10.9975,12.80792 -20.67883,23.93484 -21.51408,24.72651 -6.17285,5.85092 -17.30592,2.84562 -20.36809,-5.49824 -0.46673,-1.27172 -8.325,-25.60645 -17.46285,-54.07719 -9.13785,-28.47073 -17.19229,-52.77224 -17.89872,-54.00338 -1.55367,-2.70762 -4.00754,-4.68037 -7.1056,-5.71255 -1.26914,-0.42283 -17.21801,-4.73506 -35.44191,-9.58273 -18.22392,-4.84769 -34.070042,-9.33645 -35.213602,-9.97503 -7.932701,-4.42977 -8.468966,-16.8742 -0.940484,-21.82462 1.082296,-0.71169 77.006776,-32.84781 168.721106,-71.41362 159.23465,-66.95811 166.89726,-70.119678 169.94677,-70.119678 5.12051,0 8.93117,2.184435 11.44316,6.559758 2.67951,4.66711 4.65124,-5.431514 -29.92097,153.24793 -17.52758,80.44805 -32.24154,147.29401 -32.69771,148.54656 -2.36313,6.48871 -10.02802,10.18254 -16.24186,7.82718 z m -150.1459,-49.40592 c 0.44038,-0.53564 1.51512,-10.54888 3.17692,-29.59895 1.38131,-15.83419 2.77937,-29.86458 3.10681,-31.1786 0.32747,-1.31403 1.15043,-3.24213 1.8288,-4.28464 0.6784,-1.04253 33.26842,-30.09246 72.42231,-64.55544 39.15388,-34.46298 71.5043,-63.04485 71.88978,-63.51524 0.83414,-1.01791 0.39301,-2.79821 -0.80871,-3.26369 -0.51354,-0.1989 -2.24353,0.48788 -4.319,1.71467 -7.95535,4.70228 -169.24525,102.72749 -170.44915,103.59179 -1.94548,1.39671 -3.68159,4.23865 -3.68159,6.02657 0,1.4796 22.02549,82.11321 23.13036,84.67842 0.60256,1.39904 2.69131,1.61623 3.70347,0.38511 z"
     id="path3418"
     inkscape:connector-curvature="0" /><rect
     style="fill:#666666"
     id="rect3426"
     width="382.01923"
     height="183.88652"
     x="121.11232"
     y="318.46054"
     rx="93.173859" /><text
     xml:space="preserve"
     style="font-style:normal;font-variant:normal;font-weight:normal;font-stretch:normal;font-size:154.55000305px;line-height:125%;font-family:Clockopia;-inkscape-font-specification:'Clockopia, Normal';text-align:center;letter-spacing:0px;word-spacing:0px;writing-mode:lr-tb;text-anchor:middle;fill:#ffffff;fill-opacity:1;stroke:none;stroke-width:1px;stroke-linecap:butt;stroke-linejoin:miter;stroke-opacity:1"
     x="327.51385"
     y="444.42444"
     id="text3428"
     sodipodi:linespacing="125%"
     transform="scale(0.95051352,1.0520629)"><tspan
       sodipodi:role="line"
       id="tspan3430"
       x="327.51385"
       y="444.42444">0000</tspan></text>
</svg>